<svg width="215" height="34" viewBox="0 0 215 34" fill="none" xmlns="http://www.w3.org/2000/svg">
<path d="M111.187 32.6479H116.379V17.2479C116.379 15.3559 116.247 12.4959 116.071 10.2519L116.555 10.1639C116.951 12.5399 117.523 14.8719 118.007 16.8959L120.427 26.0919H124.299L126.719 16.8959C127.203 14.8719 127.775 12.5399 128.171 10.1639L128.655 10.2519C128.479 12.4959 128.347 15.3559 128.347 17.2479V32.6479H133.539V1.84793H126.367L123.727 12.9359C123.243 15.1799 122.891 16.8079 122.671 18.6999H122.187C121.923 16.8079 121.615 15.1799 121.131 12.9359L118.491 1.84793H111.187V32.6479Z" fill="white"/>
<path d="M153.718 30.0959C153.762 30.8439 153.85 31.8119 154.07 32.6479H159.614C159.35 30.8879 159.218 28.7759 159.218 25.9159V17.2479C159.218 11.5279 155.698 9.23993 149.934 9.23993C146.722 9.23993 143.466 9.94393 141.354 10.8679V15.0479H142.806C144.654 14.1679 146.854 13.6399 148.966 13.6399C152.046 13.6399 153.498 14.7399 153.498 17.5999V18.4799L147.778 19.5359C142.278 20.5039 139.33 22.3959 139.33 26.5319C139.33 30.4919 142.014 33.0879 146.678 33.0879C150.374 33.0879 152.266 31.4599 153.366 29.9639L153.718 30.0959ZM153.498 26.4879C152.486 27.8079 150.814 28.8199 148.57 28.8199C146.15 28.8199 145.05 27.6759 145.05 26.0479C145.05 24.3759 146.238 23.2759 149.23 22.7479L153.498 21.9559V26.4879Z" fill="white"/>
<path d="M168.045 32.6479H173.985V17.2919C175.525 15.0919 178.209 14.0359 180.937 14.0359C181.289 14.0359 181.729 14.0359 182.125 14.1239V20.3719H187.097V9.67993C186.129 9.41593 184.545 9.23993 183.049 9.23993C179.045 9.23993 176.141 10.6479 174.337 13.0239L173.985 12.8919V9.67993H168.045V32.6479Z" fill="white"/>
<path d="M18.9219 29.3039C17.2499 30.0959 15.5779 30.5359 13.5099 30.5359C7.65789 30.5359 4.04989 26.9279 4.04989 17.6879C4.04989 8.44792 7.65789 4.83992 13.5099 4.83992C15.5779 4.83992 17.2499 5.27992 18.9219 6.07192H19.5819V3.03592C17.8659 2.24392 15.6219 1.84792 13.5539 1.84792C5.19389 1.84792 0.529892 7.08392 0.529892 17.6879C0.529892 28.2919 5.19389 33.5279 13.5539 33.5279C15.6219 33.5279 17.8659 33.1319 19.5819 32.3399V29.3039H18.9219Z" fill="#34D9E3"/>
<path d="M37.2967 33.5279C43.8527 33.5279 47.8567 29.1279 47.8567 21.6479C47.8567 14.1679 43.8527 9.76792 37.2967 9.76792C30.7407 9.76792 26.7367 14.1679 26.7367 21.6479C26.7367 29.1279 30.7407 33.5279 37.2967 33.5279ZM37.2967 30.7999C32.7207 30.7999 30.0807 27.6319 30.0807 21.6479C30.0807 15.6639 32.7207 12.4959 37.2967 12.4959C41.8727 12.4959 44.5127 15.6639 44.5127 21.6479C44.5127 27.6319 41.8727 30.7999 37.2967 30.7999Z" fill="#34D9E3"/>
<path d="M70.3235 33.0879H73.5355V0.747925H70.3235V12.4959L70.1475 12.6279C68.3875 10.7359 66.0115 9.76792 63.4155 9.76792C59.0595 9.76792 54.0875 12.6279 54.0875 21.6479C54.0875 30.6679 59.0595 33.5279 63.4155 33.5279C66.0115 33.5279 68.3875 32.5599 70.1475 30.6679L70.3235 30.7999V33.0879ZM70.3235 27.6319C68.4755 29.6559 66.6275 30.7119 64.1195 30.7119C60.7315 30.7119 57.4315 28.6879 57.4315 21.6479C57.4315 14.6079 60.7315 12.5839 64.1195 12.5839C66.6275 12.5839 68.4755 13.6399 70.3235 15.6639V27.6319Z" fill="#34D9E3"/>
<path d="M99.8303 29.3479C98.0703 30.2719 96.0903 30.7119 93.8023 30.7119C88.6983 30.7119 85.5743 28.5999 85.1343 22.4839H101.326L101.766 22.0439V21.2519C101.766 14.5199 98.3343 9.76792 91.9543 9.76792C86.4103 9.76792 81.8783 13.7719 81.8783 21.6479C81.8783 29.6119 86.4543 33.5279 93.7143 33.5279C96.3983 33.5279 98.6863 32.9999 100.49 32.1639V29.3479H99.8303ZM85.1343 19.8439C85.5303 14.7839 88.4343 12.4959 91.9543 12.4959C95.5623 12.4959 98.1583 14.7399 98.5103 19.8439H85.1343Z" fill="#34D9E3"/>
<path d="M192.449 33.0879L198.389 33.0879L200.569 33.0879L208.245 33.0879L214.317 33.0879L214.317 31.7239L204.109 17.2039L213.833 3.65191L213.833 2.28791L207.893 2.28791L198.389 2.28791L192.449 2.2879L192.449 33.0879Z" fill="white"/>
</svg>
